<mxfile host="app.diagrams.net" modified="2024-05-03T14:49:29.987Z" agent="Mozilla/5.0 (Windows NT 10.0; Win64; x64) AppleWebKit/537.36 (KHTML, like Gecko) Chrome/124.0.0.0 Safari/537.36" etag="_My7Z7lXMjW4ZtG4rOT1" version="24.3.1" type="github">
  <diagram name="Page-1" id="nRrXyf7INGiIGbmpSxvh">
    <mxGraphModel dx="1434" dy="738" grid="1" gridSize="10" guides="1" tooltips="1" connect="1" arrows="1" fold="1" page="1" pageScale="1" pageWidth="850" pageHeight="1100" math="0" shadow="0">
      <root>
        <mxCell id="0" />
        <mxCell id="1" parent="0" />
        <mxCell id="Q4Pk-urvtS-5LU4mxGrk-62" style="edgeStyle=orthogonalEdgeStyle;rounded=0;orthogonalLoop=1;jettySize=auto;html=1;" parent="1" source="Q4Pk-urvtS-5LU4mxGrk-2" target="Q4Pk-urvtS-5LU4mxGrk-14" edge="1">
          <mxGeometry relative="1" as="geometry" />
        </mxCell>
        <mxCell id="Q4Pk-urvtS-5LU4mxGrk-2" value="" style="whiteSpace=wrap;html=1;shape=mxgraph.basic.pentagon" parent="1" vertex="1">
          <mxGeometry x="600" y="480" width="100" height="90" as="geometry" />
        </mxCell>
        <mxCell id="Q4Pk-urvtS-5LU4mxGrk-4" value="" style="html=1;shadow=0;dashed=0;align=center;verticalAlign=middle;shape=mxgraph.arrows2.jumpInArrow;dy=15;dx=38;arrowHead=55;rotation=45;" parent="1" vertex="1">
          <mxGeometry x="379.63" y="420" width="177.4" height="176.02" as="geometry" />
        </mxCell>
        <mxCell id="Q4Pk-urvtS-5LU4mxGrk-7" value="" style="html=1;shadow=0;dashed=0;align=center;verticalAlign=middle;shape=mxgraph.arrows2.jumpInArrow;dy=15;dx=38;arrowHead=55;rotation=-135;" parent="1" vertex="1">
          <mxGeometry x="379.63" y="490" width="177.4" height="176.02" as="geometry" />
        </mxCell>
        <mxCell id="Q4Pk-urvtS-5LU4mxGrk-61" style="edgeStyle=orthogonalEdgeStyle;rounded=0;orthogonalLoop=1;jettySize=auto;html=1;" parent="1" source="Q4Pk-urvtS-5LU4mxGrk-10" target="Q4Pk-urvtS-5LU4mxGrk-2" edge="1">
          <mxGeometry relative="1" as="geometry" />
        </mxCell>
        <mxCell id="Q4Pk-urvtS-5LU4mxGrk-10" value="" style="whiteSpace=wrap;html=1;shape=mxgraph.basic.pentagon" parent="1" vertex="1">
          <mxGeometry x="600" y="233.98" width="100" height="90" as="geometry" />
        </mxCell>
        <mxCell id="Q4Pk-urvtS-5LU4mxGrk-11" value="" style="html=1;shadow=0;dashed=0;align=center;verticalAlign=middle;shape=mxgraph.arrows2.jumpInArrow;dy=15;dx=38;arrowHead=55;rotation=-135;" parent="1" vertex="1">
          <mxGeometry x="379.63" y="243.98" width="177.4" height="176.02" as="geometry" />
        </mxCell>
        <mxCell id="Q4Pk-urvtS-5LU4mxGrk-12" value="" style="html=1;shadow=0;dashed=0;align=center;verticalAlign=middle;shape=mxgraph.arrows2.jumpInArrow;dy=15;dx=38;arrowHead=55;rotation=45;" parent="1" vertex="1">
          <mxGeometry x="379.63" y="173.98" width="177.4" height="176.02" as="geometry" />
        </mxCell>
        <mxCell id="Q4Pk-urvtS-5LU4mxGrk-13" value="" style="image;html=1;image=img/lib/clip_art/computers/Server_Tower_128x128.png" parent="1" vertex="1">
          <mxGeometry x="249.99999999999997" y="760" width="80" height="80" as="geometry" />
        </mxCell>
        <mxCell id="Q4Pk-urvtS-5LU4mxGrk-14" value="" style="whiteSpace=wrap;html=1;shape=mxgraph.basic.pentagon" parent="1" vertex="1">
          <mxGeometry x="600" y="740" width="100" height="90" as="geometry" />
        </mxCell>
        <mxCell id="Q4Pk-urvtS-5LU4mxGrk-15" value="" style="html=1;shadow=0;dashed=0;align=center;verticalAlign=middle;shape=mxgraph.arrows2.jumpInArrow;dy=15;dx=38;arrowHead=55;rotation=-135;" parent="1" vertex="1">
          <mxGeometry x="379.63" y="750" width="177.4" height="176.02" as="geometry" />
        </mxCell>
        <mxCell id="Q4Pk-urvtS-5LU4mxGrk-16" value="" style="html=1;shadow=0;dashed=0;align=center;verticalAlign=middle;shape=mxgraph.arrows2.jumpInArrow;dy=15;dx=38;arrowHead=55;rotation=45;" parent="1" vertex="1">
          <mxGeometry x="379.63" y="680" width="177.4" height="176.02" as="geometry" />
        </mxCell>
        <mxCell id="Q4Pk-urvtS-5LU4mxGrk-35" style="edgeStyle=orthogonalEdgeStyle;rounded=0;orthogonalLoop=1;jettySize=auto;html=1;exitX=0.736;exitY=0.983;exitDx=0;exitDy=0;exitPerimeter=0;" parent="1" source="Q4Pk-urvtS-5LU4mxGrk-20" target="Q4Pk-urvtS-5LU4mxGrk-13" edge="1">
          <mxGeometry relative="1" as="geometry" />
        </mxCell>
        <mxCell id="Q4Pk-urvtS-5LU4mxGrk-20" value="" style="ellipse;whiteSpace=wrap;html=1;" parent="1" vertex="1">
          <mxGeometry x="90" y="500" width="271.67" height="100" as="geometry" />
        </mxCell>
        <mxCell id="Q4Pk-urvtS-5LU4mxGrk-17" value="" style="verticalLabelPosition=bottom;sketch=0;html=1;fillColor=#6ABD46;strokeColor=#ffffff;verticalAlign=top;align=center;points=[[0.085,0.085,0],[0.915,0.085,0],[0.915,0.915,0],[0.085,0.915,0],[0.25,0,0],[0.5,0,0],[0.75,0,0],[1,0.25,0],[1,0.5,0],[1,0.75,0],[0.75,1,0],[0.5,1,0],[0.25,1,0],[0,0.75,0],[0,0.5,0],[0,0.25,0]];pointerEvents=1;shape=mxgraph.cisco_safe.compositeIcon;bgIcon=mxgraph.cisco_safe.architecture.generic_appliance;resIcon=mxgraph.cisco_safe.architecture.secure_dns;" parent="1" vertex="1">
          <mxGeometry x="139.17" y="525" width="50" height="50" as="geometry" />
        </mxCell>
        <mxCell id="Q4Pk-urvtS-5LU4mxGrk-18" value="" style="verticalLabelPosition=bottom;sketch=0;html=1;fillColor=#6ABD46;strokeColor=#ffffff;verticalAlign=top;align=center;points=[[0.085,0.085,0],[0.915,0.085,0],[0.915,0.915,0],[0.085,0.915,0],[0.25,0,0],[0.5,0,0],[0.75,0,0],[1,0.25,0],[1,0.5,0],[1,0.75,0],[0.75,1,0],[0.5,1,0],[0.25,1,0],[0,0.75,0],[0,0.5,0],[0,0.25,0]];pointerEvents=1;shape=mxgraph.cisco_safe.compositeIcon;bgIcon=mxgraph.cisco_safe.architecture.generic_appliance;resIcon=mxgraph.cisco_safe.architecture.secure_dns;" parent="1" vertex="1">
          <mxGeometry x="200.83" y="525" width="50" height="50" as="geometry" />
        </mxCell>
        <mxCell id="Q4Pk-urvtS-5LU4mxGrk-19" value="" style="verticalLabelPosition=bottom;sketch=0;html=1;fillColor=#6ABD46;strokeColor=#ffffff;verticalAlign=top;align=center;points=[[0.085,0.085,0],[0.915,0.085,0],[0.915,0.915,0],[0.085,0.915,0],[0.25,0,0],[0.5,0,0],[0.75,0,0],[1,0.25,0],[1,0.5,0],[1,0.75,0],[0.75,1,0],[0.5,1,0],[0.25,1,0],[0,0.75,0],[0,0.5,0],[0,0.25,0]];pointerEvents=1;shape=mxgraph.cisco_safe.compositeIcon;bgIcon=mxgraph.cisco_safe.architecture.generic_appliance;resIcon=mxgraph.cisco_safe.architecture.secure_dns;" parent="1" vertex="1">
          <mxGeometry x="262.5" y="525" width="50" height="50" as="geometry" />
        </mxCell>
        <mxCell id="Q4Pk-urvtS-5LU4mxGrk-21" value="" style="image;html=1;image=img/lib/clip_art/telecommunication/Palm_Treo_128x128.png" parent="1" vertex="1">
          <mxGeometry x="109.99999999999999" y="330" width="59" height="50" as="geometry" />
        </mxCell>
        <mxCell id="Q4Pk-urvtS-5LU4mxGrk-22" value="" style="shape=mxgraph.signs.transportation.sea_plane;html=1;pointerEvents=1;fillColor=#000000;strokeColor=none;verticalLabelPosition=bottom;verticalAlign=top;align=center;" parent="1" vertex="1">
          <mxGeometry x="205.49999999999997" y="241.98999999999998" width="57" height="40" as="geometry" />
        </mxCell>
        <mxCell id="Q4Pk-urvtS-5LU4mxGrk-23" value="" style="shape=mxgraph.signs.transportation.airplane_3;html=1;pointerEvents=1;fillColor=#000000;strokeColor=none;verticalLabelPosition=bottom;verticalAlign=top;align=center;" parent="1" vertex="1">
          <mxGeometry x="267" y="330" width="56" height="50" as="geometry" />
        </mxCell>
        <mxCell id="Q4Pk-urvtS-5LU4mxGrk-24" value="" style="shape=mxgraph.signs.transportation.car_1;html=1;pointerEvents=1;fillColor=#000000;strokeColor=none;verticalLabelPosition=bottom;verticalAlign=top;align=center;" parent="1" vertex="1">
          <mxGeometry x="69.99999999999999" y="270" width="49" height="49" as="geometry" />
        </mxCell>
        <mxCell id="Q4Pk-urvtS-5LU4mxGrk-32" style="edgeStyle=orthogonalEdgeStyle;rounded=0;orthogonalLoop=1;jettySize=auto;html=1;exitX=0.4;exitY=0.85;exitDx=0;exitDy=0;exitPerimeter=0;" parent="1" source="Q4Pk-urvtS-5LU4mxGrk-25" target="Q4Pk-urvtS-5LU4mxGrk-21" edge="1">
          <mxGeometry relative="1" as="geometry" />
        </mxCell>
        <mxCell id="Q4Pk-urvtS-5LU4mxGrk-34" style="edgeStyle=orthogonalEdgeStyle;rounded=0;orthogonalLoop=1;jettySize=auto;html=1;exitX=0.7;exitY=0.42;exitDx=0;exitDy=0;exitPerimeter=0;" parent="1" source="Q4Pk-urvtS-5LU4mxGrk-25" target="Q4Pk-urvtS-5LU4mxGrk-20" edge="1">
          <mxGeometry relative="1" as="geometry" />
        </mxCell>
        <mxCell id="Q4Pk-urvtS-5LU4mxGrk-25" value="" style="fontColor=#0066CC;verticalAlign=top;verticalLabelPosition=bottom;labelPosition=center;align=center;html=1;outlineConnect=0;fillColor=#CCCCCC;strokeColor=#6881B3;gradientColor=none;gradientDirection=north;strokeWidth=2;shape=mxgraph.networks.satellite;" parent="1" vertex="1">
          <mxGeometry x="109.99999999999999" y="140" width="70" height="60" as="geometry" />
        </mxCell>
        <mxCell id="Q4Pk-urvtS-5LU4mxGrk-26" value="" style="fontColor=#0066CC;verticalAlign=top;verticalLabelPosition=bottom;labelPosition=center;align=center;html=1;outlineConnect=0;fillColor=#CCCCCC;strokeColor=#6881B3;gradientColor=none;gradientDirection=north;strokeWidth=2;shape=mxgraph.networks.satellite;" parent="1" vertex="1">
          <mxGeometry x="259.17" y="130" width="70" height="60" as="geometry" />
        </mxCell>
        <mxCell id="Q4Pk-urvtS-5LU4mxGrk-30" style="edgeStyle=orthogonalEdgeStyle;rounded=0;orthogonalLoop=1;jettySize=auto;html=1;exitX=0.07;exitY=0.93;exitDx=0;exitDy=0;exitPerimeter=0;entryX=0.31;entryY=0.393;entryDx=0;entryDy=0;entryPerimeter=0;" parent="1" source="Q4Pk-urvtS-5LU4mxGrk-25" target="Q4Pk-urvtS-5LU4mxGrk-24" edge="1">
          <mxGeometry relative="1" as="geometry" />
        </mxCell>
        <mxCell id="Q4Pk-urvtS-5LU4mxGrk-31" style="edgeStyle=orthogonalEdgeStyle;rounded=0;orthogonalLoop=1;jettySize=auto;html=1;exitX=0.07;exitY=0.93;exitDx=0;exitDy=0;exitPerimeter=0;entryX=0.569;entryY=0.388;entryDx=0;entryDy=0;entryPerimeter=0;" parent="1" source="Q4Pk-urvtS-5LU4mxGrk-26" target="Q4Pk-urvtS-5LU4mxGrk-22" edge="1">
          <mxGeometry relative="1" as="geometry" />
        </mxCell>
        <mxCell id="Q4Pk-urvtS-5LU4mxGrk-33" style="edgeStyle=orthogonalEdgeStyle;rounded=0;orthogonalLoop=1;jettySize=auto;html=1;exitX=0.85;exitY=1;exitDx=0;exitDy=0;exitPerimeter=0;" parent="1" source="Q4Pk-urvtS-5LU4mxGrk-26" target="Q4Pk-urvtS-5LU4mxGrk-23" edge="1">
          <mxGeometry relative="1" as="geometry" />
        </mxCell>
        <mxCell id="Q4Pk-urvtS-5LU4mxGrk-37" value="P&lt;sup&gt;COM&lt;/sup&gt;" style="text;html=1;strokeColor=none;fillColor=none;align=center;verticalAlign=middle;whiteSpace=wrap;rounded=0;" parent="1" vertex="1">
          <mxGeometry x="620" y="270" width="60" height="30" as="geometry" />
        </mxCell>
        <mxCell id="Q4Pk-urvtS-5LU4mxGrk-38" value="P&lt;span style=&quot;font-size: 10px;&quot;&gt;&lt;sup&gt;S&lt;/sup&gt;&lt;/span&gt;" style="text;html=1;strokeColor=none;fillColor=none;align=center;verticalAlign=middle;whiteSpace=wrap;rounded=0;" parent="1" vertex="1">
          <mxGeometry x="620" y="514" width="60" height="30" as="geometry" />
        </mxCell>
        <mxCell id="Q4Pk-urvtS-5LU4mxGrk-39" value="P&lt;sup&gt;C&lt;/sup&gt;" style="text;html=1;strokeColor=none;fillColor=none;align=center;verticalAlign=middle;whiteSpace=wrap;rounded=0;" parent="1" vertex="1">
          <mxGeometry x="620" y="776" width="60" height="30" as="geometry" />
        </mxCell>
        <mxCell id="Q4Pk-urvtS-5LU4mxGrk-40" value="&lt;sup style=&quot;&quot;&gt;&lt;span style=&quot;font-size: 12px;&quot;&gt;R&lt;sup&gt;s&lt;/sup&gt;&lt;/span&gt;&lt;/sup&gt;" style="text;html=1;strokeColor=none;fillColor=none;align=center;verticalAlign=middle;whiteSpace=wrap;rounded=0;" parent="1" vertex="1">
          <mxGeometry x="438.33000000000004" y="525" width="60" height="30" as="geometry" />
        </mxCell>
        <mxCell id="Q4Pk-urvtS-5LU4mxGrk-41" value="&lt;sup style=&quot;&quot;&gt;&lt;span style=&quot;font-size: 12px;&quot;&gt;R&lt;sup&gt;C&lt;/sup&gt;&lt;/span&gt;&lt;/sup&gt;" style="text;html=1;strokeColor=none;fillColor=none;align=center;verticalAlign=middle;whiteSpace=wrap;rounded=0;" parent="1" vertex="1">
          <mxGeometry x="438.33000000000004" y="785" width="60" height="30" as="geometry" />
        </mxCell>
        <mxCell id="Q4Pk-urvtS-5LU4mxGrk-42" value="R&lt;sup&gt;COM&lt;/sup&gt;" style="text;html=1;strokeColor=none;fillColor=none;align=center;verticalAlign=middle;whiteSpace=wrap;rounded=0;" parent="1" vertex="1">
          <mxGeometry x="438.33000000000004" y="281.99" width="60" height="30" as="geometry" />
        </mxCell>
        <mxCell id="Q4Pk-urvtS-5LU4mxGrk-43" value="Latency" style="text;html=1;strokeColor=none;fillColor=none;align=center;verticalAlign=middle;whiteSpace=wrap;rounded=0;" parent="1" vertex="1">
          <mxGeometry x="550" y="251.98999999999998" width="60" height="30" as="geometry" />
        </mxCell>
        <mxCell id="Q4Pk-urvtS-5LU4mxGrk-44" value="Mobility" style="text;html=1;strokeColor=none;fillColor=none;align=center;verticalAlign=middle;whiteSpace=wrap;rounded=0;" parent="1" vertex="1">
          <mxGeometry x="690" y="253.48" width="60" height="30" as="geometry" />
        </mxCell>
        <mxCell id="Q4Pk-urvtS-5LU4mxGrk-45" value="Throughput" style="text;html=1;strokeColor=none;fillColor=none;align=center;verticalAlign=middle;whiteSpace=wrap;rounded=0;" parent="1" vertex="1">
          <mxGeometry x="558" y="310" width="60" height="30" as="geometry" />
        </mxCell>
        <mxCell id="Q4Pk-urvtS-5LU4mxGrk-46" value="Spectrum efficiency" style="text;html=1;strokeColor=none;fillColor=none;align=center;verticalAlign=middle;whiteSpace=wrap;rounded=0;" parent="1" vertex="1">
          <mxGeometry x="620" y="203.98000000000002" width="60" height="30" as="geometry" />
        </mxCell>
        <mxCell id="Q4Pk-urvtS-5LU4mxGrk-47" value="Peak data rate" style="text;html=1;strokeColor=none;fillColor=none;align=center;verticalAlign=middle;whiteSpace=wrap;rounded=0;" parent="1" vertex="1">
          <mxGeometry x="680" y="320" width="60" height="30" as="geometry" />
        </mxCell>
        <mxCell id="Q4Pk-urvtS-5LU4mxGrk-49" value="Latency" style="text;html=1;strokeColor=none;fillColor=none;align=center;verticalAlign=middle;whiteSpace=wrap;rounded=0;" parent="1" vertex="1">
          <mxGeometry x="550" y="500" width="60" height="30" as="geometry" />
        </mxCell>
        <mxCell id="Q4Pk-urvtS-5LU4mxGrk-50" value="Latency" style="text;html=1;strokeColor=none;fillColor=none;align=center;verticalAlign=middle;whiteSpace=wrap;rounded=0;" parent="1" vertex="1">
          <mxGeometry x="550" y="760" width="60" height="30" as="geometry" />
        </mxCell>
        <mxCell id="Q4Pk-urvtS-5LU4mxGrk-51" value="Throughput" style="text;html=1;strokeColor=none;fillColor=none;align=center;verticalAlign=middle;whiteSpace=wrap;rounded=0;" parent="1" vertex="1">
          <mxGeometry x="560" y="815" width="60" height="30" as="geometry" />
        </mxCell>
        <mxCell id="Q4Pk-urvtS-5LU4mxGrk-52" value="Cover" style="text;html=1;strokeColor=none;fillColor=none;align=center;verticalAlign=middle;whiteSpace=wrap;rounded=0;" parent="1" vertex="1">
          <mxGeometry x="620" y="450" width="60" height="30" as="geometry" />
        </mxCell>
        <mxCell id="Q4Pk-urvtS-5LU4mxGrk-53" value="Traffic" style="text;html=1;strokeColor=none;fillColor=none;align=center;verticalAlign=middle;whiteSpace=wrap;rounded=0;" parent="1" vertex="1">
          <mxGeometry x="700" y="495" width="60" height="30" as="geometry" />
        </mxCell>
        <mxCell id="Q4Pk-urvtS-5LU4mxGrk-54" value="Stability" style="text;html=1;strokeColor=none;fillColor=none;align=center;verticalAlign=middle;whiteSpace=wrap;rounded=0;" parent="1" vertex="1">
          <mxGeometry x="670" y="563.01" width="60" height="30" as="geometry" />
        </mxCell>
        <mxCell id="Q4Pk-urvtS-5LU4mxGrk-55" value="Reliability" style="text;html=1;strokeColor=none;fillColor=none;align=center;verticalAlign=middle;whiteSpace=wrap;rounded=0;" parent="1" vertex="1">
          <mxGeometry x="570" y="563.01" width="60" height="30" as="geometry" />
        </mxCell>
        <mxCell id="Q4Pk-urvtS-5LU4mxGrk-56" value="Collect" style="text;html=1;strokeColor=none;fillColor=none;align=center;verticalAlign=middle;whiteSpace=wrap;rounded=0;" parent="1" vertex="1">
          <mxGeometry x="620" y="710" width="60" height="30" as="geometry" />
        </mxCell>
        <mxCell id="Q4Pk-urvtS-5LU4mxGrk-57" value="Bandwidth" style="text;html=1;strokeColor=none;fillColor=none;align=center;verticalAlign=middle;whiteSpace=wrap;rounded=0;" parent="1" vertex="1">
          <mxGeometry x="700" y="760" width="60" height="30" as="geometry" />
        </mxCell>
        <mxCell id="Q4Pk-urvtS-5LU4mxGrk-58" value="Schedule" style="text;html=1;strokeColor=none;fillColor=none;align=center;verticalAlign=middle;whiteSpace=wrap;rounded=0;" parent="1" vertex="1">
          <mxGeometry x="680" y="823.01" width="60" height="30" as="geometry" />
        </mxCell>
        <mxCell id="Q4Pk-urvtS-5LU4mxGrk-64" value="Communication domain" style="text;html=1;strokeColor=none;fillColor=none;align=center;verticalAlign=middle;whiteSpace=wrap;rounded=0;fontSize=21;" parent="1" vertex="1">
          <mxGeometry x="109" y="400" width="60" height="30" as="geometry" />
        </mxCell>
        <mxCell id="Q4Pk-urvtS-5LU4mxGrk-65" value="Twin domain&lt;br&gt;gs" style="text;html=1;strokeColor=none;fillColor=none;align=center;verticalAlign=middle;whiteSpace=wrap;rounded=0;fontSize=21;" parent="1" vertex="1">
          <mxGeometry x="110" y="650" width="60" height="30" as="geometry" />
        </mxCell>
        <mxCell id="Q4Pk-urvtS-5LU4mxGrk-66" value="Cumputing domain gc" style="text;html=1;strokeColor=none;fillColor=none;align=center;verticalAlign=middle;whiteSpace=wrap;rounded=0;fontSize=21;" parent="1" vertex="1">
          <mxGeometry x="110" y="830" width="60" height="30" as="geometry" />
        </mxCell>
        <mxCell id="Q4Pk-urvtS-5LU4mxGrk-67" value="&lt;sup&gt;&lt;span style=&quot;font-size: 12px;&quot;&gt;F&lt;/span&gt;COM&lt;/sup&gt;" style="text;html=1;strokeColor=none;fillColor=none;align=center;verticalAlign=middle;whiteSpace=wrap;rounded=0;" parent="1" vertex="1">
          <mxGeometry x="220.00000000000003" y="290" width="60" height="30" as="geometry" />
        </mxCell>
        <mxCell id="Q4Pk-urvtS-5LU4mxGrk-68" value="F&lt;sup&gt;s&lt;/sup&gt;" style="text;html=1;strokeColor=none;fillColor=none;align=center;verticalAlign=middle;whiteSpace=wrap;rounded=0;" parent="1" vertex="1">
          <mxGeometry x="210.00000000000003" y="620" width="60" height="30" as="geometry" />
        </mxCell>
        <mxCell id="Q4Pk-urvtS-5LU4mxGrk-69" value="&lt;sup style=&quot;&quot;&gt;&lt;sup style=&quot;&quot;&gt;&lt;span style=&quot;font-size: 12px;&quot;&gt;F&lt;sup&gt;c&lt;/sup&gt;&lt;/span&gt;&lt;/sup&gt;&lt;/sup&gt;" style="text;html=1;strokeColor=none;fillColor=none;align=center;verticalAlign=middle;whiteSpace=wrap;rounded=0;" parent="1" vertex="1">
          <mxGeometry x="199.17000000000002" y="793.01" width="60" height="30" as="geometry" />
        </mxCell>
      </root>
    </mxGraphModel>
  </diagram>
</mxfile>
